<?xml version="1.0" standalone="no"?>
<!DOCTYPE svg PUBLIC "-//W3C//DTD SVG 20010904//EN"
 "http://www.w3.org/TR/2001/REC-SVG-20010904/DTD/svg10.dtd">
<svg version="1.0" xmlns="http://www.w3.org/2000/svg"
 width="512.000000pt" height="512.000000pt" viewBox="0 0 512.000000 512.000000"
 preserveAspectRatio="xMidYMid meet">
<metadata>
Created by potrace 1.14, written by Peter Selinger 2001-2017
</metadata>
<g transform="translate(0.000000,512.000000) scale(0.100000,-0.100000)"
fill="#000000" stroke="none">
<path d="M2285 5099 c-165 -24 -363 -78 -490 -135 -22 -10 -44 -19 -50 -20 -5
-1 -38 -18 -73 -38 -34 -19 -65 -35 -67 -35 -3 -1 -18 -8 -33 -18 -359 -222
-598 -471 -782 -816 -43 -82 -110 -234 -114 -262 -1 -5 -4 -14 -8 -20 -11 -18
-67 -258 -73 -315 -4 -30 -10 -77 -14 -105 -9 -62 -7 -285 3 -380 10 -94 43
-265 61 -315 8 -22 14 -44 15 -48 1 -31 116 -305 190 -452 57 -114 68 -133
144 -266 35 -61 241 -374 273 -414 6 -8 69 -89 138 -179 70 -90 135 -171 144
-180 9 -10 34 -40 56 -67 22 -26 49 -58 60 -69 11 -12 32 -37 46 -56 15 -19
40 -48 55 -64 16 -17 67 -73 114 -125 96 -105 195 -212 288 -309 183 -192 223
-234 304 -317 l89 -92 92 96 c51 53 108 112 127 132 84 88 339 357 361 381 49
54 185 203 204 225 12 12 36 41 55 64 19 23 44 53 55 65 12 13 39 45 60 70 22
26 50 59 63 74 13 14 53 64 89 111 36 47 72 90 80 96 7 6 13 15 13 20 0 5 13
23 28 40 15 18 34 42 42 54 8 12 27 38 43 58 15 19 27 38 27 41 0 4 8 16 18
27 30 32 188 282 275 434 65 114 237 488 251 545 1 6 10 36 19 67 10 32 18 60
18 63 0 2 6 26 14 52 7 27 16 64 19 83 3 19 8 44 10 56 20 100 26 388 12 499
-5 33 -9 74 -11 90 -2 26 -12 81 -19 110 -2 6 -6 24 -10 40 -37 157 -104 334
-168 447 -21 37 -38 69 -38 72 0 4 -89 138 -134 200 -33 47 -126 154 -206 235
-21 22 -133 120 -165 144 -145 112 -292 199 -455 270 -64 27 -204 77 -235 83
-5 1 -30 7 -55 14 -48 13 -57 15 -140 30 -110 20 -138 22 -315 24 -131 2 -213
-2 -300 -15z"/>
</g>
</svg>
